<?xml version="1.0" encoding="utf-8"?>
<!-- Generator: Adobe Illustrator 19.2.1, SVG Export Plug-In . SVG Version: 6.00 Build 0)  -->
<svg version="1.1" id="Layer_1" xmlns="http://www.w3.org/2000/svg" xmlns:xlink="http://www.w3.org/1999/xlink" x="0px" y="0px"
	 viewBox="0 0 16 280" style="enable-background:new 0 0 16 280;" xml:space="preserve">
<style type="text/css">
	.st0{fill:#FFFFFF;stroke:#5D9DD5;stroke-miterlimit:10;}
	.st1{fill:#5D9DD5;}
</style>
<path class="st0" d="M10,25H6c-1.7,0-3-1.4-3-3v-4c0-1.6,1.3-3,3-3h4c1.6,0,3,1.4,3,3v4C13,23.6,11.6,25,10,25z"/>
<path class="st1" d="M10,265H6c-1.7,0-3-1.3-3-3v-4c0-1.7,1.3-3,3-3h4c1.6,0,3,1.3,3,3v4C13,263.7,11.6,265,10,265z"/>
</svg>
